<mxfile host="app.diagrams.net" modified="2022-07-25T23:09:37.700Z" agent="5.0 (Macintosh; Intel Mac OS X 10_15_7) AppleWebKit/537.36 (KHTML, like Gecko) Chrome/103.0.0.0 Safari/537.36" etag="-_ofqINpnxbqIRD28iYT" version="20.2.0" type="github">
  <diagram id="UW2Let9FedXbePVIwO7e" name="Page-1">
    <mxGraphModel dx="2194" dy="1228" grid="1" gridSize="15" guides="1" tooltips="1" connect="1" arrows="1" fold="1" page="1" pageScale="1" pageWidth="850" pageHeight="1100" math="0" shadow="1">
      <root>
        <mxCell id="0" />
        <mxCell id="1" parent="0" />
        <mxCell id="ZzOdG_4jZLLu2tyRgjDv-50" value="Storage&lt;br&gt;Mongo DB 4.4" style="shape=cylinder3;whiteSpace=wrap;html=1;boundedLbl=1;backgroundOutline=1;size=16.4000244140625;strokeColor=default;fillColor=default;gradientColor=#FFE6CC;dashed=1;dashPattern=1 1;gradientDirection=radial;verticalAlign=top;horizontal=1;" parent="1" vertex="1">
          <mxGeometry x="464" y="420" width="105" height="210" as="geometry" />
        </mxCell>
        <mxCell id="ZzOdG_4jZLLu2tyRgjDv-80" value="PPA&lt;br&gt;Admin&lt;br&gt;User" style="shape=umlActor;verticalLabelPosition=bottom;verticalAlign=top;html=1;outlineConnect=0;rounded=1;" parent="1" vertex="1">
          <mxGeometry x="32" y="345" width="30" height="60" as="geometry" />
        </mxCell>
        <mxCell id="ZzOdG_4jZLLu2tyRgjDv-86" value="&lt;b&gt;A 4.1&lt;/b&gt;" style="ellipse;whiteSpace=wrap;html=1;gradientColor=#ffffff;fillColor=#3399FF;" parent="1" vertex="1">
          <mxGeometry x="870" y="315" width="45" height="30" as="geometry" />
        </mxCell>
        <mxCell id="ZzOdG_4jZLLu2tyRgjDv-89" value="SA-RNI-Integration" style="swimlane;rounded=1;dashed=1;fillColor=#FFCD69;strokeColor=#d79b00;swimlaneFillColor=#FFFFCC;gradientColor=#ffffff;" parent="1" vertex="1">
          <mxGeometry x="930" y="172" width="180" height="188" as="geometry" />
        </mxCell>
        <mxCell id="ZzOdG_4jZLLu2tyRgjDv-90" value="API/Cache/Job - 3.2.x" style="swimlane;fontStyle=0;childLayout=stackLayout;horizontal=1;startSize=30;horizontalStack=0;resizeParent=1;resizeParentMax=0;resizeLast=0;collapsible=1;marginBottom=0;rounded=1;" parent="ZzOdG_4jZLLu2tyRgjDv-89" vertex="1">
          <mxGeometry x="18" y="39" width="147" height="90" as="geometry" />
        </mxCell>
        <mxCell id="AruDtZ0RBoFqMmwlggtc-56" value="Device&lt;br&gt;Get Threshold&lt;br&gt;Set Threshold&lt;br&gt;Get Job Status&lt;br&gt;" style="text;html=1;strokeColor=none;fillColor=none;align=center;verticalAlign=middle;whiteSpace=wrap;rounded=0;" vertex="1" parent="ZzOdG_4jZLLu2tyRgjDv-90">
          <mxGeometry y="30" width="147" height="60" as="geometry" />
        </mxCell>
        <mxCell id="ZzOdG_4jZLLu2tyRgjDv-110" value="PPA Application Services - Overview 1.0" style="text;html=1;strokeColor=none;fillColor=none;align=center;verticalAlign=middle;whiteSpace=wrap;rounded=0;dashed=1;dashPattern=1 1;fontSize=17;shadow=1;sketch=0;" parent="1" vertex="1">
          <mxGeometry x="15" y="105" width="329" height="45" as="geometry" />
        </mxCell>
        <mxCell id="GmtC9z-hrs0Nm8OKajx7-26" value="&lt;b&gt;A 3.2&lt;/b&gt;" style="ellipse;whiteSpace=wrap;html=1;gradientColor=#ffffff;fillColor=#3399FF;" parent="1" vertex="1">
          <mxGeometry x="600" y="584" width="45" height="30" as="geometry" />
        </mxCell>
        <mxCell id="V6qS4mEH70nxAcZY2XD3-2" value="&lt;b&gt;A 3.1&lt;/b&gt;" style="ellipse;whiteSpace=wrap;html=1;gradientColor=#ffffff;fillColor=#3399FF;" parent="1" vertex="1">
          <mxGeometry x="600" y="420" width="45" height="30" as="geometry" />
        </mxCell>
        <mxCell id="AruDtZ0RBoFqMmwlggtc-1" value="App / UI - v1.0.x" style="swimlane;rounded=1;dashed=1;fillColor=#b1ddf0;strokeColor=#10739e;swimlaneFillColor=#F5FAFF;gradientColor=#ffffff;" vertex="1" parent="1">
          <mxGeometry x="167" y="195" width="163" height="525" as="geometry" />
        </mxCell>
        <mxCell id="AruDtZ0RBoFqMmwlggtc-17" value="/pressure-profile/svc" style="swimlane;fontStyle=0;childLayout=stackLayout;horizontal=1;startSize=30;horizontalStack=0;resizeParent=1;resizeParentMax=0;resizeLast=0;collapsible=1;marginBottom=0;rounded=1;" vertex="1" parent="AruDtZ0RBoFqMmwlggtc-1">
          <mxGeometry x="16" y="375" width="134" height="135" as="geometry" />
        </mxCell>
        <mxCell id="AruDtZ0RBoFqMmwlggtc-61" value="Dashboard&lt;br&gt;Sensors&lt;br&gt;Reads&lt;br&gt;Alarms&lt;br&gt;View Threshold&lt;br&gt;Map view" style="text;html=1;strokeColor=none;fillColor=none;align=left;verticalAlign=middle;whiteSpace=wrap;rounded=0;spacingLeft=5;" vertex="1" parent="AruDtZ0RBoFqMmwlggtc-17">
          <mxGeometry y="30" width="134" height="105" as="geometry" />
        </mxCell>
        <mxCell id="AruDtZ0RBoFqMmwlggtc-2" value="/pressure-profile/api" style="swimlane;fontStyle=0;childLayout=stackLayout;horizontal=1;startSize=30;horizontalStack=0;resizeParent=1;resizeParentMax=0;resizeLast=0;collapsible=1;marginBottom=0;rounded=1;" vertex="1" parent="AruDtZ0RBoFqMmwlggtc-1">
          <mxGeometry x="16" y="33" width="129" height="75" as="geometry" />
        </mxCell>
        <mxCell id="AruDtZ0RBoFqMmwlggtc-45" value="Ingest Sensor + Site&lt;br&gt;&lt;div style=&quot;text-align: left;&quot;&gt;&lt;span style=&quot;background-color: initial;&quot;&gt;Edit Threshold&lt;/span&gt;&lt;/div&gt;" style="text;html=1;align=center;verticalAlign=middle;resizable=0;points=[];autosize=1;strokeColor=none;fillColor=none;" vertex="1" parent="AruDtZ0RBoFqMmwlggtc-2">
          <mxGeometry y="30" width="129" height="45" as="geometry" />
        </mxCell>
        <mxCell id="AruDtZ0RBoFqMmwlggtc-10" value="PPA &lt;br&gt;User" style="shape=umlActor;verticalLabelPosition=bottom;verticalAlign=top;html=1;outlineConnect=0;rounded=1;" vertex="1" parent="1">
          <mxGeometry x="32" y="517.5" width="30" height="60" as="geometry" />
        </mxCell>
        <mxCell id="ZzOdG_4jZLLu2tyRgjDv-84" value="&amp;nbsp;Read&amp;nbsp;" style="endArrow=classic;html=1;rounded=0;entryX=0;entryY=0.25;entryDx=0;entryDy=0;exitX=1;exitY=0.3333333333333333;exitDx=0;exitDy=0;exitPerimeter=0;" parent="1" target="AruDtZ0RBoFqMmwlggtc-17" edge="1" source="AruDtZ0RBoFqMmwlggtc-10">
          <mxGeometry x="-0.051" y="8" width="50" height="50" relative="1" as="geometry">
            <mxPoint x="62" y="713.5" as="sourcePoint" />
            <mxPoint x="167" y="699" as="targetPoint" />
            <mxPoint y="-1" as="offset" />
          </mxGeometry>
        </mxCell>
        <mxCell id="AruDtZ0RBoFqMmwlggtc-18" value="&lt;b&gt;A1.2&lt;/b&gt;" style="ellipse;whiteSpace=wrap;html=1;gradientColor=#ffffff;fillColor=#3399FF;" vertex="1" parent="1">
          <mxGeometry x="87.5" y="584" width="45" height="30" as="geometry" />
        </mxCell>
        <mxCell id="AruDtZ0RBoFqMmwlggtc-19" value="read + write" style="endArrow=classic;html=1;rounded=0;entryX=0;entryY=0;entryDx=0;entryDy=68.20001220703125;exitX=1;exitY=0.75;exitDx=0;exitDy=0;entryPerimeter=0;" edge="1" parent="1" source="AruDtZ0RBoFqMmwlggtc-2" target="ZzOdG_4jZLLu2tyRgjDv-50">
          <mxGeometry x="-0.051" y="8" width="50" height="50" relative="1" as="geometry">
            <mxPoint x="332" y="412.5" as="sourcePoint" />
            <mxPoint x="456" y="397.5" as="targetPoint" />
            <mxPoint y="-1" as="offset" />
          </mxGeometry>
        </mxCell>
        <mxCell id="AruDtZ0RBoFqMmwlggtc-20" value="&lt;b&gt;A 2.2&lt;/b&gt;" style="ellipse;whiteSpace=wrap;html=1;gradientColor=#ffffff;fillColor=#3399FF;" vertex="1" parent="1">
          <mxGeometry x="374" y="330" width="45" height="30" as="geometry" />
        </mxCell>
        <mxCell id="AruDtZ0RBoFqMmwlggtc-21" value="read" style="endArrow=classic;html=1;rounded=0;entryX=0;entryY=0;entryDx=0;entryDy=149.29998779296875;exitX=1;exitY=0.25;exitDx=0;exitDy=0;entryPerimeter=0;" edge="1" parent="1" source="AruDtZ0RBoFqMmwlggtc-17" target="ZzOdG_4jZLLu2tyRgjDv-50">
          <mxGeometry x="0.1009" y="-1" width="50" height="50" relative="1" as="geometry">
            <mxPoint x="332" y="607.5" as="sourcePoint" />
            <mxPoint x="456" y="592.5" as="targetPoint" />
            <mxPoint as="offset" />
          </mxGeometry>
        </mxCell>
        <mxCell id="AruDtZ0RBoFqMmwlggtc-22" value="&lt;b&gt;A 2.3&lt;br&gt;&lt;/b&gt;" style="ellipse;whiteSpace=wrap;html=1;gradientColor=#ffffff;fillColor=#3399FF;" vertex="1" parent="1">
          <mxGeometry x="374" y="607.5" width="45" height="30" as="geometry" />
        </mxCell>
        <mxCell id="V6qS4mEH70nxAcZY2XD3-1" value="" style="endArrow=classic;html=1;rounded=0;exitX=1;exitY=0.25;exitDx=0;exitDy=0;strokeColor=#A6A6A6;shadow=0;dashed=1;entryX=0;entryY=0.25;entryDx=0;entryDy=0;" parent="1" source="AruDtZ0RBoFqMmwlggtc-2" target="ZzOdG_4jZLLu2tyRgjDv-90" edge="1">
          <mxGeometry width="50" height="50" relative="1" as="geometry">
            <mxPoint x="1153" y="304.9999999999998" as="sourcePoint" />
            <mxPoint x="839" y="210" as="targetPoint" />
          </mxGeometry>
        </mxCell>
        <mxCell id="AruDtZ0RBoFqMmwlggtc-29" value="API" style="edgeLabel;html=1;align=center;verticalAlign=middle;resizable=0;points=[];" vertex="1" connectable="0" parent="V6qS4mEH70nxAcZY2XD3-1">
          <mxGeometry x="0.0521" y="-1" relative="1" as="geometry">
            <mxPoint x="-20" as="offset" />
          </mxGeometry>
        </mxCell>
        <mxCell id="AruDtZ0RBoFqMmwlggtc-24" value="Chronos 1.9.x" style="swimlane;rounded=1;dashed=1;fillColor=#CCFFCC;strokeColor=#10739e;swimlaneFillColor=#F7FFFC;gradientColor=#ffffff;" vertex="1" parent="1">
          <mxGeometry x="670.21" y="285" width="180" height="180" as="geometry" />
        </mxCell>
        <mxCell id="AruDtZ0RBoFqMmwlggtc-25" value="Job/Poll/Persist" style="swimlane;fontStyle=0;childLayout=stackLayout;horizontal=1;startSize=30;horizontalStack=0;resizeParent=1;resizeParentMax=0;resizeLast=0;collapsible=1;marginBottom=0;rounded=1;" vertex="1" parent="AruDtZ0RBoFqMmwlggtc-24">
          <mxGeometry x="21" y="30" width="129" height="105" as="geometry" />
        </mxCell>
        <mxCell id="AruDtZ0RBoFqMmwlggtc-57" value="&lt;div style=&quot;text-align: left;&quot;&gt;&lt;span style=&quot;background-color: initial;&quot;&gt;Device&lt;br&gt;Reads&lt;/span&gt;&lt;/div&gt;&lt;div style=&quot;text-align: left;&quot;&gt;&lt;span style=&quot;background-color: initial;&quot;&gt;Alarms&lt;br&gt;Get Threshold&lt;/span&gt;&lt;/div&gt;" style="text;html=1;strokeColor=none;fillColor=none;align=center;verticalAlign=middle;whiteSpace=wrap;rounded=0;" vertex="1" parent="AruDtZ0RBoFqMmwlggtc-25">
          <mxGeometry y="30" width="129" height="75" as="geometry" />
        </mxCell>
        <mxCell id="AruDtZ0RBoFqMmwlggtc-27" value="read + write" style="endArrow=classic;html=1;rounded=0;entryX=1;entryY=0;entryDx=0;entryDy=79.45001220703125;entryPerimeter=0;exitX=0;exitY=1;exitDx=0;exitDy=0;" edge="1" parent="1" source="AruDtZ0RBoFqMmwlggtc-25" target="ZzOdG_4jZLLu2tyRgjDv-50">
          <mxGeometry x="0.2005" y="4" width="50" height="50" relative="1" as="geometry">
            <mxPoint x="719" y="495" as="sourcePoint" />
            <mxPoint x="449" y="513.75" as="targetPoint" />
            <mxPoint as="offset" />
          </mxGeometry>
        </mxCell>
        <mxCell id="AruDtZ0RBoFqMmwlggtc-28" value="" style="endArrow=classic;html=1;rounded=0;exitX=1;exitY=0.25;exitDx=0;exitDy=0;strokeColor=#A6A6A6;shadow=0;dashed=1;entryX=0;entryY=0.5;entryDx=0;entryDy=0;" edge="1" parent="1" source="AruDtZ0RBoFqMmwlggtc-25" target="AruDtZ0RBoFqMmwlggtc-56">
          <mxGeometry width="50" height="50" relative="1" as="geometry">
            <mxPoint x="855.0000000000005" y="308" as="sourcePoint" />
            <mxPoint x="977" y="235" as="targetPoint" />
          </mxGeometry>
        </mxCell>
        <mxCell id="AruDtZ0RBoFqMmwlggtc-30" value="&amp;nbsp;API&amp;nbsp;" style="edgeLabel;html=1;align=center;verticalAlign=middle;resizable=0;points=[];" vertex="1" connectable="0" parent="AruDtZ0RBoFqMmwlggtc-28">
          <mxGeometry x="-0.0812" relative="1" as="geometry">
            <mxPoint x="20" y="-28" as="offset" />
          </mxGeometry>
        </mxCell>
        <mxCell id="AruDtZ0RBoFqMmwlggtc-31" value="Echo 1.5.x" style="swimlane;rounded=1;dashed=1;fillColor=#B1C7BD;strokeColor=#10739e;swimlaneFillColor=#F7FFFC;gradientColor=#ffffff;" vertex="1" parent="1">
          <mxGeometry x="930" y="465" width="180" height="180" as="geometry" />
        </mxCell>
        <mxCell id="AruDtZ0RBoFqMmwlggtc-32" value="Job/Poll/Persist" style="swimlane;fontStyle=0;childLayout=stackLayout;horizontal=1;startSize=30;horizontalStack=0;resizeParent=1;resizeParentMax=0;resizeLast=0;collapsible=1;marginBottom=0;rounded=1;" vertex="1" parent="AruDtZ0RBoFqMmwlggtc-31">
          <mxGeometry x="21" y="40" width="144" height="75" as="geometry" />
        </mxCell>
        <mxCell id="AruDtZ0RBoFqMmwlggtc-55" value="Reads&lt;br&gt;Alarms&lt;br&gt;" style="text;html=1;strokeColor=none;fillColor=none;align=center;verticalAlign=middle;whiteSpace=wrap;rounded=0;" vertex="1" parent="AruDtZ0RBoFqMmwlggtc-32">
          <mxGeometry y="30" width="144" height="45" as="geometry" />
        </mxCell>
        <mxCell id="AruDtZ0RBoFqMmwlggtc-33" value="read + write" style="endArrow=classic;html=1;rounded=0;entryX=0.992;entryY=0.671;entryDx=0;entryDy=0;exitX=0;exitY=0.75;exitDx=0;exitDy=0;entryPerimeter=0;" edge="1" parent="1" source="AruDtZ0RBoFqMmwlggtc-32" target="ZzOdG_4jZLLu2tyRgjDv-50">
          <mxGeometry x="0.1243" y="4" width="50" height="50" relative="1" as="geometry">
            <mxPoint x="960" y="622.5" as="sourcePoint" />
            <mxPoint x="849" y="637.5" as="targetPoint" />
            <mxPoint as="offset" />
          </mxGeometry>
        </mxCell>
        <mxCell id="AruDtZ0RBoFqMmwlggtc-35" value="&lt;b&gt;A 2.1&lt;/b&gt;" style="ellipse;whiteSpace=wrap;html=1;gradientColor=#ffffff;fillColor=#3399FF;" vertex="1" parent="1">
          <mxGeometry x="870" y="196.5" width="45" height="30" as="geometry" />
        </mxCell>
        <mxCell id="AruDtZ0RBoFqMmwlggtc-36" value="RNI &gt;= 4.9.x" style="swimlane;rounded=1;dashed=1;fillColor=#FFD966;strokeColor=#d79b00;swimlaneFillColor=#FFCC99;gradientColor=#FFCC99;gradientDirection=south;" vertex="1" parent="1">
          <mxGeometry x="1196" y="285" width="180" height="180" as="geometry" />
        </mxCell>
        <mxCell id="AruDtZ0RBoFqMmwlggtc-37" value="API" style="swimlane;fontStyle=0;childLayout=stackLayout;horizontal=1;startSize=30;horizontalStack=0;resizeParent=1;resizeParentMax=0;resizeLast=0;collapsible=1;marginBottom=0;rounded=1;" vertex="1" parent="AruDtZ0RBoFqMmwlggtc-36">
          <mxGeometry x="17" y="49" width="147" height="105" as="geometry" />
        </mxCell>
        <mxCell id="AruDtZ0RBoFqMmwlggtc-54" value="Device&lt;br&gt;Reads&lt;br&gt;Alarms&lt;br&gt;Get/Set Threshold&lt;br&gt;" style="text;html=1;align=left;verticalAlign=middle;resizable=0;points=[];autosize=1;strokeColor=none;fillColor=none;" vertex="1" parent="AruDtZ0RBoFqMmwlggtc-37">
          <mxGeometry y="30" width="147" height="75" as="geometry" />
        </mxCell>
        <mxCell id="AruDtZ0RBoFqMmwlggtc-38" value="" style="endArrow=classic;html=1;rounded=0;exitX=1;exitY=0.25;exitDx=0;exitDy=0;strokeColor=#A6A6A6;shadow=0;dashed=1;entryX=0;entryY=0.25;entryDx=0;entryDy=0;" edge="1" parent="1" source="ZzOdG_4jZLLu2tyRgjDv-90" target="AruDtZ0RBoFqMmwlggtc-37">
          <mxGeometry width="50" height="50" relative="1" as="geometry">
            <mxPoint x="360.00000000000045" y="335" as="sourcePoint" />
            <mxPoint x="994" y="334.5" as="targetPoint" />
          </mxGeometry>
        </mxCell>
        <mxCell id="AruDtZ0RBoFqMmwlggtc-39" value="API" style="edgeLabel;html=1;align=center;verticalAlign=middle;resizable=0;points=[];" vertex="1" connectable="0" parent="AruDtZ0RBoFqMmwlggtc-38">
          <mxGeometry x="0.0521" y="-1" relative="1" as="geometry">
            <mxPoint as="offset" />
          </mxGeometry>
        </mxCell>
        <mxCell id="AruDtZ0RBoFqMmwlggtc-40" value="" style="endArrow=classic;html=1;rounded=0;exitX=1;exitY=0.25;exitDx=0;exitDy=0;strokeColor=#A6A6A6;shadow=0;dashed=1;entryX=0;entryY=0.75;entryDx=0;entryDy=0;" edge="1" parent="1" source="AruDtZ0RBoFqMmwlggtc-32" target="AruDtZ0RBoFqMmwlggtc-37">
          <mxGeometry width="50" height="50" relative="1" as="geometry">
            <mxPoint x="1109" y="259.5" as="sourcePoint" />
            <mxPoint x="1277" y="372.5" as="targetPoint" />
          </mxGeometry>
        </mxCell>
        <mxCell id="AruDtZ0RBoFqMmwlggtc-41" value="API" style="edgeLabel;html=1;align=center;verticalAlign=middle;resizable=0;points=[];" vertex="1" connectable="0" parent="AruDtZ0RBoFqMmwlggtc-40">
          <mxGeometry x="0.0521" y="-1" relative="1" as="geometry">
            <mxPoint as="offset" />
          </mxGeometry>
        </mxCell>
        <mxCell id="AruDtZ0RBoFqMmwlggtc-42" value="&lt;b&gt;A 5.1&lt;/b&gt;" style="ellipse;whiteSpace=wrap;html=1;gradientColor=#ffffff;fillColor=#3399FF;" vertex="1" parent="1">
          <mxGeometry x="1135" y="240" width="45" height="30" as="geometry" />
        </mxCell>
        <mxCell id="AruDtZ0RBoFqMmwlggtc-43" value="&lt;b&gt;A 5.2&lt;/b&gt;" style="ellipse;whiteSpace=wrap;html=1;gradientColor=#ffffff;fillColor=#3399FF;" vertex="1" parent="1">
          <mxGeometry x="1135" y="495" width="45" height="30" as="geometry" />
        </mxCell>
        <mxCell id="ZzOdG_4jZLLu2tyRgjDv-111" value="Ingest" style="endArrow=classic;html=1;rounded=0;entryX=0;entryY=0.25;entryDx=0;entryDy=0;exitX=1;exitY=0.3333333333333333;exitDx=0;exitDy=0;exitPerimeter=0;" parent="1" target="AruDtZ0RBoFqMmwlggtc-2" edge="1" source="ZzOdG_4jZLLu2tyRgjDv-80">
          <mxGeometry x="-0.1386" y="3" width="50" height="50" relative="1" as="geometry">
            <mxPoint x="61.999999999999545" y="420" as="sourcePoint" />
            <mxPoint x="164" y="362.5" as="targetPoint" />
            <mxPoint as="offset" />
          </mxGeometry>
        </mxCell>
        <mxCell id="ZzOdG_4jZLLu2tyRgjDv-85" value="&lt;b&gt;A1.1&lt;/b&gt;" style="ellipse;whiteSpace=wrap;html=1;gradientColor=#ffffff;fillColor=#3399FF;" parent="1" vertex="1">
          <mxGeometry x="87.5" y="255" width="45" height="30" as="geometry" />
        </mxCell>
      </root>
    </mxGraphModel>
  </diagram>
</mxfile>
